# xmcd
# Copyright (C) 1995-1998 Ti Kan
#
# Track frame offsets:
#       150
#       14976
#       36295
#       50947
#       65324
#
# Disc length: 1009 seconds
#
# Revision: 0
# Processed by: cddbd v1.5.2PL0 Copyright (c) Steve Scherf et al.
# Submitted via: CD-Transfer v1.0
#
DISCID=4903ef05
DTITLE=Tsar Shate Ii - The Pilon Variations
DYEAR=06
DGENRE=
TTITLE0=Incantation
TTITLE1=My Henry Growth
TTITLE2=Women And Me
TTITLE3=All This Past Time
TTITLE4=Our Story Will Never Be
EXTD=
EXTT0=
EXTT1=
EXTT2=
EXTT3=
EXTT4=
PLAYORDER=
